<?xml version="1.0" encoding="utf-8"?>
<!-- Generator: Adobe Illustrator 22.0.0, SVG Export Plug-In . SVG Version: 6.00 Build 0)  -->
<svg version="1.1" xmlns="http://www.w3.org/2000/svg" xmlns:xlink="http://www.w3.org/1999/xlink" x="0px" y="0px"
	 viewBox="0 0 1920 1080" style="enable-background:new 0 0 1920 1080;" xml:space="preserve">
<style type="text/css">
	.st0{display:none;}
	.st1{display:inline;}
	.st2{fill:#282F42;}
	.st3{display:none;fill:#104A84;}
	.st4{fill:#F2673E;}
	.st5{fill:none;stroke:#FFFFFF;stroke-width:6;stroke-miterlimit:10;}
	.st6{fill:none;stroke:#FFFFFF;stroke-width:10;stroke-miterlimit:10;}
	.st7{fill:#FFFFFF;}
</style>
<g id="Layer_2" class="st0">
	<g class="st1">
		<polygon class="st2" points="1920,1084 4.8,1084 5.8,5.6 1917,5.6 		"/>
	</g>
</g>
<g id="Layer_1">
	<circle class="st3" cx="-3637.7" cy="-1170.7" r="26.4"/>
	<path class="st2" d="M457.8,667.8H391V471.2h65.8c17.8,0,32.1,1.8,42.8,5.4c10.7,3.6,20.4,9.6,29.2,18.1c9.3,9,16.3,19.9,21.1,32.7
		c4.8,12.8,7.2,27.2,7.2,43.1c0,17.8-3.3,33.8-10,47.9c-6.7,14.1-16.3,25.7-29,34.8c-7.2,5.3-15.3,9.1-24.2,11.3
		C484.9,666.7,472.9,667.8,457.8,667.8z M455.4,634.1c21.3,0,37.1-5.2,47.1-15.7c10.1-10.4,15.1-26.8,15.1-49
		c0-20.4-5.5-36.3-16.5-47.7c-11-11.3-26.5-17-46.3-17h-25.1v129.4H455.4z"/>
	<path class="st2" d="M613.5,504.1h-33.8v-33h33.8V504.1z M579.7,667.8V519.2h33.8v148.6H579.7z"/>
	<path class="st2" d="M678.2,519.2v16.9c5-6.8,10.8-11.8,17.4-15c6.5-3.2,14-4.9,22.4-4.9c10.7,0,20.1,2,28,6.1s14.6,10.1,19.9,18.2
		c3.4,5.4,5.9,11.5,7.4,18.4c1.5,6.9,2.2,17,2.2,30.2v78.6h-34.6V602c0-19.9-2.3-33.5-6.9-40.9c-4.6-7.4-12.5-11.1-23.8-11.1
		c-11.5,0-19.8,4.1-24.9,12.2c-5,8.2-7.6,22.1-7.6,41.9v63.6h-33.4V519.2H678.2z"/>
	<path class="st2" d="M832.4,604.5c1.2,10.7,5.4,19.2,12.8,25.3c7.3,6.2,16.8,9.3,28.4,9.3c7.7,0,14.7-1.6,20.9-4.9
		c6.2-3.2,11.1-7.8,14.7-13.6h37.3c-6.3,16.2-15.7,28.8-28.3,37.8s-27.1,13.4-43.6,13.4c-11.1,0-21.3-2-30.6-5.9
		c-9.3-3.9-17.7-9.7-25.1-17.4c-7-7.3-12.5-15.7-16.3-25.3c-3.9-9.6-5.8-19.4-5.8-29.5c0-10.4,1.8-20.1,5.3-29.2
		c3.6-9.1,8.8-17.4,15.7-24.7c7.6-8,16.1-14.2,25.7-18.5c9.5-4.3,19.4-6.5,29.6-6.5c12.9,0,24.9,2.9,36.1,8.8
		c11.2,5.9,20.7,14.1,28.5,24.7c4.8,6.4,8.3,13.6,10.6,21.5c2.3,7.9,3.4,17,3.4,27.3c0,0.8,0,2-0.1,3.7c-0.1,1.7-0.1,2.9-0.1,3.7
		H832.4z M914.4,577.1c-3-9.9-7.9-17.4-14.9-22.6c-7-5.2-15.8-7.8-26.4-7.8c-9.2,0-17.4,2.8-24.7,8.4c-7.3,5.6-12.2,12.9-14.7,22
		H914.4z"/>
	<path class="st4" d="M1003.7,667.8h-32.2v-166h43l42.2,120.8l42.1-120.8h43v166h-32l1.1-120.5l-42,120.5h-24.5l-42.1-120.5
		L1003.7,667.8z"/>
	<path class="st4" d="M1265.2,667.8v-15.4c-3.5,6.2-8.4,10.8-14.8,13.8c-6.3,3-14.5,4.4-24.3,4.4c-18.6,0-34-6.3-46.5-19
		s-18.6-28.4-18.6-47.2c0-8.8,1.6-17.2,4.7-25.1c3.1-7.9,7.6-14.9,13.3-20.9c6.2-6.6,13.2-11.5,20.8-14.7c7.6-3.2,16.2-4.7,25.7-4.7
		c9.1,0,17,1.5,23.5,4.6c6.6,3,11.9,7.6,15.9,13.8v-15.2h28.5v125.4H1265.2z M1190.9,604.1c0,10.6,3.5,19.4,10.5,26.5
		c7,7.1,15.6,10.7,25.7,10.7c9.2,0,17.3-3.6,24.3-10.7c7-7.1,10.5-15.5,10.5-25.1c0-10.2-3.5-18.9-10.5-26.3c-7-7.3-15.3-11-24.7-11
		c-9.9,0-18.3,3.5-25.3,10.4C1194.4,585.5,1190.9,594,1190.9,604.1z"/>
	<path class="st4" d="M1328.1,667.8v-99.4h-19.2v-26h19.2v-40.6h29.2v40.6h19.3v26h-19.3v99.4H1328.1z"/>
	<path class="st4" d="M1413.3,614.3c1,9,4.6,16.2,10.8,21.4c6.2,5.2,14.2,7.8,24,7.8c6.5,0,12.4-1.4,17.6-4.1
		c5.2-2.7,9.3-6.6,12.4-11.5h31.5c-5.3,13.7-13.3,24.3-23.9,31.9c-10.6,7.6-22.9,11.3-36.8,11.3c-9.4,0-18-1.7-25.8-5
		c-7.9-3.3-14.9-8.2-21.2-14.7c-5.9-6.2-10.5-13.3-13.8-21.4c-3.3-8.1-4.9-16.4-4.9-24.9c0-8.7,1.5-17,4.5-24.7
		c3-7.7,7.4-14.7,13.3-20.8c6.4-6.8,13.6-12,21.7-15.6c8.1-3.6,16.4-5.5,25-5.5c10.9,0,21,2.5,30.4,7.4c9.4,4.9,17.4,11.9,24.1,20.9
		c4,5.4,7,11.4,9,18.1c1.9,6.7,2.9,14.4,2.9,23c0,0.7,0,1.7-0.1,3.1c-0.1,1.4-0.1,2.5-0.1,3.1H1413.3z M1482.5,591.2
		c-2.5-8.4-6.7-14.7-12.6-19.1c-5.9-4.4-13.3-6.6-22.3-6.6c-7.8,0-14.7,2.4-20.9,7.1c-6.2,4.7-10.3,10.9-12.4,18.6H1482.5z"/>
	<g>
		<text transform="matrix(1 0 0 1 253.6312 -781.2417)"><tspan x="0" y="0" class="st2" style="font-family:'AvantGardeITCbyBT-Demi'; font-size:276.6443px;">Dine</tspan><tspan x="583.1" y="0" class="st4" style="font-family:'AvantGardeITCbyBT-Demi'; font-size:233.5571px;">Mate</tspan></text>
	</g>
	<path class="st5" d="M3592.8-3787.8c-8.5,1.1-12.3,1.5-16.2,2c-60.5,8.7-111.5,34.3-147.7,85c-14.7,20.5-24.3,43.3-26.6,68.9
		c-1,10.7,3,13.1,13,13.1c129.1-0.3,258.3-0.2,387.4-0.3c4.1,0,8.1-0.3,14.4-0.6c-18.8-108.7-91.3-153.3-193-169.1
		c2.9-5.3,5.5-9.6,7.7-14.1c1.4-2.9,3.7-6.6,3-9.2c-0.8-2.6-4.7-5.9-7.4-6c-12.8-0.6-25.7-0.6-38.6,0c-2.7,0.1-6.7,3.3-7.5,5.9
		c-0.8,2.5,1.3,6.3,2.7,9.2C3586.3-3798.5,3589-3794.3,3592.8-3787.8z M3814-3322.8c0.8-2.1,1.5-3.1,1.5-4.1
		c0.1-35.4,0.3-70.9-0.1-106.3c0-2.7-3.4-7.1-6.1-7.9c-15.6-4.6-31.5-8.3-47.8-12.4c-0.9,2.6-1.6,4.7-2.4,6.8
		c-10.2,26.8-20.3,53.7-30.5,80.5c-1.4,3.6-4.3,7.2-4.1,10.7c0.2,3.6,2.6,9.3,5.3,10.1C3757.6-3337.4,3785.8-3330.2,3814-3322.8z"/>
	<path class="st5" d="M3592.8-3787.8c-3.8-6.5-6.5-10.7-8.7-15.2c-1.4-2.9-3.6-6.7-2.7-9.2c0.8-2.6,4.8-5.8,7.5-5.9
		c12.8-0.6,25.7-0.6,38.6,0c2.7,0.1,6.6,3.4,7.4,6c0.8,2.6-1.5,6.2-3,9.2c-2.2,4.5-4.8,8.8-7.7,14.1
		c101.7,15.8,174.1,60.4,193,169.1c-6.3,0.3-10.3,0.6-14.4,0.6c-129.1,0-258.3,0-387.4,0.3c-10,0-14-2.4-13-13.1
		c2.3-25.6,11.9-48.4,26.6-68.9c36.2-50.7,87.2-76.3,147.7-85C3580.5-3786.3,3584.3-3786.7,3592.8-3787.8z"/>
	<path class="st5" d="M3340.9-3605.6c179.7,0,359.4,0,539.1,0c-19,16.4-42.3,19.9-65.4,23.5c-23.4,3.7-46.9,6.4-68.5,9.2
		c-1.9,7-2.6,13.5-5.4,19c-16.8,33.8-20.1,66.9,3.7,99.1c1.4,1.9,2.4,5.3,1.7,7.3c-8.1,23.4-16.6,46.7-25.4,71.3
		c-10.3-6.7-19.9-11.9-28.3-18.5c-20-15.7-42.5-25.8-66.6-32.9c-12.1-3.5-20.5-10.7-28.5-20.6c-17.1-21.2-36.5-40.4-54.4-61
		c-7.4-8.5-12.2-19.2-20.1-27.1c-8.9-8.9-19.1-17.5-30.3-23c-8.2-4-10.1-14.1-21.4-15.4c-33.2-3.6-66.2-9.1-99.1-15.1
		c-11.3-2.1-21.8-7.9-32.7-12.1C3339.9-3602.9,3340.4-3604.3,3340.9-3605.6z M3541.8-3569.1c-0.1,0.7-0.3,1.4-0.4,2
		c15.7,9.8,31.6,19.4,47.2,29.4c18.5,11.8,38.9,17.9,60.4,19.2c7.9,0.5,18.6-1.6,23.6-6.8c12.8-13.3,23.2-29,34.6-43.8
		C3651.1-3569.1,3596.4-3569.1,3541.8-3569.1z"/>
	<circle class="st6" cx="1025.7" cy="-2099" r="446.7"/>
	<text transform="matrix(1 0 0 1 4254.2075 -4006.6633)"><tspan x="0" y="0" class="st7" style="font-family:'AvantGardeITCbyBT-Demi'; font-size:274.3302px;">Dine</tspan><tspan x="0" y="238.8" class="st7" style="font-family:'AvantGardeITCbyBT-Demi'; font-size:199.022px;">Mate</tspan></text>
	<g>
		<path class="st6" d="M6034-2992.7c-9.9,1.3-14.4,1.7-18.9,2.4c-70.8,10.2-130.5,40.2-172.9,99.5c-17.2,24-28.5,50.7-31.1,80.7
			c-1.1,12.5,3.5,15.3,15.3,15.3c151.2-0.4,302.4-0.3,453.6-0.3c4.8,0,9.5-0.4,16.8-0.7c-22.1-127.3-106.9-179.5-225.9-198
			c3.4-6.2,6.5-11.3,9-16.5c1.7-3.4,4.3-7.7,3.5-10.7c-0.9-3-5.5-6.9-8.7-7.1c-15-0.7-30.1-0.7-45.2,0c-3.2,0.2-7.8,3.9-8.8,6.9
			c-1,3,1.5,7.4,3.2,10.8C6026.4-3005.3,6029.6-3000.4,6034-2992.7z M6292.9-2448.3c0.9-2.4,1.8-3.6,1.8-4.8
			c0.1-41.5,0.3-83-0.1-124.4c0-3.2-4-8.3-7.1-9.2c-18.3-5.3-36.9-9.7-56-14.5c-1,3-1.9,5.5-2.8,8c-11.9,31.4-23.8,62.8-35.7,94.2
			c-1.6,4.2-5.1,8.5-4.8,12.6c0.2,4.2,3.1,10.9,6.2,11.8C6226.9-2465.4,6259.9-2457,6292.9-2448.3z"/>
		<path class="st6" d="M6034-2992.7c-4.4-7.6-7.6-12.6-10.2-17.8c-1.7-3.4-4.2-7.8-3.2-10.8c1-3,5.6-6.7,8.8-6.9
			c15-0.7,30.1-0.7,45.2,0c3.1,0.2,7.8,4,8.7,7.1c0.9,3-1.8,7.3-3.5,10.7c-2.6,5.3-5.6,10.3-9,16.5c119.1,18.5,203.9,70.7,225.9,198
			c-7.3,0.3-12.1,0.7-16.8,0.7c-151.2,0.1-302.4-0.1-453.6,0.3c-11.8,0-16.4-2.8-15.3-15.3c2.7-30,14-56.7,31.1-80.7
			c42.4-59.3,102.1-89.3,172.9-99.5C6019.5-2991,6024-2991.5,6034-2992.7z"/>
		<path class="st6" d="M5739-2779.4c210.4,0,420.8,0,631.3,0c-22.3,19.2-49.5,23.3-76.5,27.5c-27.4,4.3-54.9,7.4-80.2,10.8
			c-2.2,8.2-3.1,15.8-6.3,22.2c-19.7,39.6-23.5,78.3,4.3,116.1c1.6,2.2,2.8,6.2,2,8.6c-9.5,27.4-19.4,54.7-29.8,83.5
			c-12.1-7.8-23.3-13.9-33.2-21.7c-23.4-18.4-49.8-30.2-78-38.5c-14.1-4.2-24-12.5-33.4-24.1c-20-24.8-42.8-47.3-63.7-71.4
			c-8.6-9.9-14.3-22.5-23.5-31.7c-10.5-10.5-22.4-20.5-35.5-26.9c-9.6-4.7-11.8-16.5-25.1-18c-38.9-4.3-77.5-10.6-116-17.7
			c-13.2-2.4-25.6-9.3-38.3-14.1C5737.8-2776.3,5738.4-2777.8,5739-2779.4z M5974.3-2736.7c-0.2,0.8-0.3,1.6-0.5,2.4
			c18.4,11.5,37,22.7,55.2,34.4c21.6,13.9,45.5,21,70.7,22.5c9.2,0.5,21.8-1.9,27.6-8c15-15.6,27.2-33.9,40.5-51.3
			C6102.2-2736.7,6038.2-2736.7,5974.3-2736.7z"/>
	</g>
	<circle class="st6" cx="6053.7" cy="-2738.5" r="422.9"/>
	<g>
		<path class="st7" d="M-2703.9-2466.3c0.4-14.1,0.7-28.1,1.1-42.2c0.2-6.1,0.5-12.1,0.7-18.2c0.3-6.9,0.5-13.9,0.8-20.8
			c0.4-10.1,0.8-20.2,1.2-30.2c0.3-8.2,0.6-16.3,0.9-24.5c0.1-2.5,0.2-4.9,0.5-7.4c0.2-2.1,1.1-2.6,2.3-1.3c1.2,1.4,2.3,2.9,3.1,4.7
			c3.4,7.5,5.6,15.6,7.1,24.1c1.9,10.6,2.8,21.3,2.6,32.1c-0.1,10.8-2.3,20.8-6.9,29.8c-0.8,1.5-1.5,3.1-2.3,4.6
			c-1,2.1-1.5,4.5-1.5,7c0.2,10.9,0.4,21.8,0.6,32.6c0.2,9.7,0.4,19.5,0.6,29.2c0.2,8.4,0.4,16.9,0.5,25.3c0.1,4.2-1.8,7.5-4.8,8.7
			c-4,1.6-8.2-2.6-8-8.3c0.2-9,0.5-18.1,0.8-27.1C-2704.3-2454.1-2704.1-2460.2-2703.9-2466.3
			C-2703.9-2466.3-2703.9-2466.3-2703.9-2466.3z"/>
		<path class="st7" d="M-2669.9-2476.5c0.2-10.4,0.4-20.9,0.6-31.3c0.2-7.2,0.3-14.4,0.5-21.6c0.2-5.2-1.1-9.5-3.9-13.1
			c-2.3-3-3.5-6.7-3.5-11c-0.2-18.3-0.4-36.6-0.6-54.9c0-0.1,0-0.2,0-0.4c0.1-0.9,0.7-2.2,1.2-2.1c0.7,0.1,1.1,0.8,1.3,1.7
			c0.1,0.5,0.1,1.1,0.1,1.6c0.4,13.5,0.7,26.9,1.1,40.4c0,1.1,0.2,2.2,0.4,3.2c0.1,0.5,0.7,0.7,1,1c0.2-0.5,0.6-0.9,0.6-1.4
			c0.1-3.7,0.2-7.5,0.2-11.2c0-11.1,0-22.2-0.1-33.2c0-0.4,0-0.7,0-1.1c0.1-1,0.6-1.5,1.4-1.5c0.8,0.1,1,0.7,1,1.6
			c0.2,5.3,0.4,10.7,0.5,16c0.2,9.5,0.4,19,0.7,28.5c0,1.9,0.8,2.5,2,1.7c0.2-0.1,0.3-0.5,0.3-0.7c0-0.5,0-1,0-1.5
			c0-13.7,0-27.4,0-41.1c0-0.8,0-1.6,0.1-2.3c0.1-0.6,0.3-1.2,0.6-1.6c0.2-0.3,0.7-0.6,1-0.5c0.2,0.1,0.5,0.7,0.6,1.1
			c0.2,1.6,0.3,3.3,0.4,4.9c0.3,12.6,0.5,25.3,0.7,37.9c0,0.8,0,1.6,0.2,2.3c0.2,0.7,0.7,1.3,1.2,1.6c0.5,0.3,1.3-1,1.4-1.8
			c0-0.3,0-0.7,0-1.1c-0.1-13.6-0.1-27.2-0.2-40.8c0-0.9,0-1.9,0.2-2.7c0.2-0.6,0.7-1.5,1.1-1.6c0.6-0.1,0.9,0.8,1,1.6
			c0.2,4.9,0.4,9.8,0.5,14.7c0.2,13.8,0.2,27.6,0.4,41.4c0,3.6-0.7,6.6-2.4,9.3c-0.9,1.4-1.7,2.8-2.5,4.2c-1.3,2.2-1.9,4.7-1.8,7.5
			c0.4,11.5,0.9,23.1,1.3,34.6c0.4,9.8,0.9,19.6,1.3,29.4c0.5,12,1,24,1.5,36c0.1,3.6,0.2,7.3,0.4,10.9c0.2,3.6-1,6.2-3.2,7.9
			c-2.2,1.8-4.4,1.7-6.6,0.1c-1.7-1.3-2.8-3.3-2.9-6.1c-0.1-2.5-0.2-4.9-0.1-7.4C-2670.6-2443.5-2670.3-2460-2669.9-2476.5
			C-2669.9-2476.5-2669.9-2476.5-2669.9-2476.5z"/>
	</g>
	<g>
		<path class="st7" d="M-660.2-2549.9c1.3,32.7,2.5,65.4,3.9,98.1c0.9,22.8,1.8,45.6,2.9,68.3c0.3,6.7-0.9,12.5-6.5,16.8
			c-5.2,3.9-10.6,4.2-16.3,1.4c-5.8-2.9-9.6-7.1-9.4-14c0.9-28.9,1.7-57.9,2.5-86.8c0.5-18.7,1-37.3,1.5-56
			c0.2-5.8,0.3-11.6,0.5-17.4c0.2-5.3-1.4-10-4.2-14.5c-4.7-7.5-9.6-14.8-13.6-22.7c-5.9-11.5-8.2-24.1-8.6-36.9
			c-0.8-30,3.4-59.2,14.6-87.1c3.1-7.6,7.3-14.8,11.4-21.9c1.5-2.6,4.2-4.5,6.7-6.4c2-1.5,4.1-0.5,4.8,2c0.5,2,0.8,4.1,0.9,6.2
			c1.4,25.9,2.7,51.8,4,77.6c1.5,29.3,3.1,58.7,4.6,88c0.1,1.7,0,3.5,0,5.2C-660.3-2549.9-660.3-2549.9-660.2-2549.9z"/>
		<path class="st7" d="M-760-2479.8c0.5-19.3,1-38.5,1.5-57.7c0.4-13.2,0.8-26.3,1.3-39.5c0.4-9.7-2.8-17.8-9.9-24.5
			c-6-5.7-8.7-12.8-8.8-21c-0.4-25.6-0.8-51.1-1.1-76.7c-0.1-7.7-0.2-15.5-0.2-23.2c0-1,0.1-2.1,0.6-2.9c0.6-0.9,1.8-2.2,2.4-2
			c1.1,0.2,2.1,1.3,2.8,2.3c0.5,0.7,0.6,1.8,0.6,2.7c0.8,21.7,1.5,43.4,2.2,65.1c0.2,4.7,0.5,9.4,0.8,14.1c0,0.4,0,0.9,0.2,1.3
			c0.5,1.3,1,2.9,2.9,2.8c1.7-0.1,1.8-1.7,1.8-3c0.2-8.2,0.4-16.5,0.4-24.7c0-18.9-0.1-37.8-0.1-56.7c0-0.7,0-1.5,0.2-2.2
			c0.4-1.9,1.8-2.4,3.6-2.3c1.8,0.1,2.3,1.3,2.3,2.8c0.3,5.9,0.6,11.9,0.8,17.8c0.7,20.3,1.3,40.5,1.9,60.8c0,1.2,0.1,2.5,0.2,3.7
			c0.2,3.5,0.5,3.6,3.9,3.3c1.6-0.1,2-0.7,2-2.3c0-25.8,0-51.5,0-77.3c0-1.6,0.1-3.2,0.4-4.7c0.2-1.1,0.7-2.2,1.4-3.1
			c0.6-0.7,1.8-1.3,2.6-1.1c0.7,0.2,1.4,1.4,1.6,2.3c0.4,2.9,0.8,5.9,0.9,8.8c0.6,23.4,1.2,46.8,1.8,70.1c0,1.4,0.1,2.8,0.4,4.1
			c0.4,1.6,1.2,3.3,3.1,3c1.8-0.2,3-1.6,3.3-3.5c0.1-0.5,0-1,0-1.5c-0.1-25-0.3-50-0.4-74.9c0-1.8,0.2-3.6,0.3-5.4
			c0.2-1.7,1.2-3.1,2.9-3c1.6,0.1,2.3,1.6,2.4,3.2c0.4,9.7,1.1,19.4,1.2,29c0.4,24.7,0.6,49.4,1,74.1c0.1,6.7-1.8,12.3-6.2,17.3
			c-2.2,2.5-4.2,5.2-6.3,7.8c-3.2,3.9-4.8,8.4-4.5,13.5c1.1,21.3,2.1,42.7,3.3,64c1,18,2.1,36,3.2,54c1.1,19.1,2.2,38.3,3.3,57.5
			c0.5,9.9,1,19.8,1.5,29.7c0.3,7.2-3.3,12.1-9.4,15c-6.2,2.9-12.2,2-17.5-2.3c-2.9-2.3-4.6-5.5-4.8-9.2c-0.3-4.9-0.5-9.8-0.4-14.7
			C-761.6-2419.6-760.8-2449.7-760-2479.8C-760-2479.8-760-2479.8-760-2479.8z"/>
	</g>
	<text transform="matrix(1 0 0 1 6525.2456 -2809.4314)"><tspan x="0" y="0" class="st7" style="font-family:'AvantGardeITCbyBT-Demi'; font-size:244.298px;">Dine</tspan><tspan x="0" y="293.2" class="st7" style="font-family:'AvantGardeITCbyBT-Demi'; font-size:244.298px;">mate</tspan></text>
	<circle class="st2" cx="725.3" cy="601.2" r="7.4"/>
	<path class="st7" d="M-2459.9-2577.3h-33.8v-33h33.8V-2577.3z M-2493.7-2413.6v-148.6h33.8v148.6H-2493.7z"/>
	<path class="st7" d="M-2395.2-2562.2v16.9c5-6.8,10.8-11.8,17.4-15c6.5-3.2,14-4.9,22.4-4.9c10.7,0,20.1,2,28,6.1
		c8,4.1,14.6,10.1,19.9,18.2c3.4,5.4,5.9,11.5,7.4,18.4c1.5,6.9,2.2,17,2.2,30.2v78.6h-34.6v-65.8c0-19.9-2.3-33.5-6.9-40.9
		c-4.6-7.4-12.5-11.1-23.8-11.1c-11.5,0-19.8,4.1-24.9,12.2c-5,8.2-7.6,22.1-7.6,41.9v63.6h-33.4v-148.6H-2395.2z"/>
	<path class="st7" d="M-2240.9-2476.9c1.2,10.7,5.4,19.2,12.8,25.3c7.3,6.2,16.8,9.3,28.4,9.3c7.7,0,14.7-1.6,20.9-4.9
		c6.2-3.2,11.1-7.8,14.7-13.6h37.3c-6.3,16.2-15.7,28.8-28.3,37.8c-12.6,9-27.1,13.4-43.6,13.4c-11.1,0-21.3-2-30.6-5.9
		c-9.3-3.9-17.7-9.7-25.1-17.4c-7-7.3-12.5-15.7-16.3-25.3c-3.9-9.6-5.8-19.4-5.8-29.5c0-10.4,1.8-20.1,5.3-29.2
		c3.6-9.1,8.8-17.4,15.7-24.7c7.6-8,16.1-14.2,25.7-18.5c9.5-4.3,19.4-6.5,29.6-6.5c12.9,0,24.9,2.9,36.1,8.8
		c11.2,5.9,20.7,14.1,28.5,24.7c4.8,6.4,8.3,13.6,10.6,21.5c2.3,7.9,3.4,17,3.4,27.3c0,0.8,0,2-0.1,3.7c-0.1,1.7-0.1,2.9-0.1,3.7
		H-2240.9z M-2158.9-2504.4c-3-9.9-7.9-17.4-14.9-22.6c-7-5.2-15.8-7.8-26.4-7.8c-9.2,0-17.4,2.8-24.7,8.4
		c-7.3,5.6-12.2,12.9-14.7,22H-2158.9z"/>
	<path class="st7" d="M-2069.6-2413.6h-32.2v-166h43l42.2,120.8l42.1-120.8h43v166h-32l1.1-120.5l-42,120.5h-24.5l-42.1-120.5
		L-2069.6-2413.6z"/>
	<path class="st7" d="M-1808.1-2413.6v-15.4c-3.5,6.2-8.4,10.8-14.8,13.8c-6.3,3-14.5,4.4-24.3,4.4c-18.6,0-34-6.3-46.5-19
		c-12.4-12.7-18.6-28.4-18.6-47.2c0-8.8,1.6-17.2,4.7-25.1c3.1-7.9,7.6-14.9,13.3-20.9c6.2-6.6,13.2-11.5,20.8-14.7
		c7.6-3.2,16.2-4.7,25.7-4.7c9.1,0,17,1.5,23.5,4.6c6.6,3,11.9,7.6,15.9,13.8v-15.2h28.5v125.4H-1808.1z M-1882.5-2477.3
		c0,10.6,3.5,19.4,10.5,26.5c7,7.1,15.6,10.7,25.7,10.7c9.2,0,17.3-3.6,24.3-10.7c7-7.1,10.5-15.5,10.5-25.1
		c0-10.2-3.5-18.9-10.5-26.3c-7-7.3-15.3-11-24.7-11c-9.9,0-18.3,3.5-25.3,10.4C-1879-2495.9-1882.5-2487.4-1882.5-2477.3z"/>
	<path class="st7" d="M-1745.3-2413.6v-99.4h-19.2v-26h19.2v-40.6h29.2v40.6h19.3v26h-19.3v99.4H-1745.3z"/>
	<path class="st7" d="M-1660.1-2467.1c1,9,4.6,16.2,10.8,21.4c6.2,5.2,14.2,7.8,24,7.8c6.5,0,12.4-1.4,17.6-4.1
		c5.2-2.7,9.3-6.6,12.4-11.5h31.5c-5.3,13.7-13.3,24.3-23.9,31.9c-10.6,7.6-22.9,11.3-36.8,11.3c-9.4,0-18-1.7-25.8-5
		c-7.9-3.3-14.9-8.2-21.2-14.7c-5.9-6.2-10.5-13.3-13.8-21.4c-3.3-8.1-4.9-16.4-4.9-24.9c0-8.7,1.5-17,4.5-24.7
		c3-7.7,7.4-14.7,13.3-20.8c6.4-6.8,13.6-12,21.7-15.6c8.1-3.6,16.4-5.5,25-5.5c10.9,0,21,2.5,30.4,7.4c9.4,4.9,17.4,11.9,24.1,20.9
		c4,5.4,7,11.4,9,18.1c1.9,6.7,2.9,14.4,2.9,23c0,0.7,0,1.7-0.1,3.1c-0.1,1.4-0.1,2.5-0.1,3.1H-1660.1z M-1590.9-2490.2
		c-2.5-8.4-6.7-14.7-12.6-19.1c-5.9-4.4-13.3-6.6-22.3-6.6c-7.8,0-14.7,2.4-20.9,7.1c-6.2,4.7-10.3,10.9-12.4,18.6H-1590.9z"/>
	<path class="st7" d="M-2523.5-2554.1c-4.8-12.8-11.8-23.7-21.1-32.7c-8.7-8.5-18.5-14.5-29.2-18.1c-10.7-3.6-25-5.4-42.8-5.4h-27
		v33.5h25.1c19.8,0,35.2,5.7,46.3,17c11,11.3,16.5,27.2,16.5,47.7c0,22.2-5,38.6-15.1,49c-10.1,10.4-25.8,15.7-47.1,15.7h-25.7v33.8
		h28.1c15,0,27-1.1,35.9-3.4c8.9-2.3,17-6,24.2-11.3c12.7-9.1,22.4-20.7,29-34.8c6.7-14.1,10-30.1,10-47.9
		C-2516.4-2526.9-2518.8-2541.3-2523.5-2554.1z"/>
</g>
</svg>
